<?xml version="1.0" encoding="utf-8"?>
<svg version="1.1" id="Слой_1" xmlns="http://www.w3.org/2000/svg" xmlns:xlink="http://www.w3.org/1999/xlink" x="0px" y="0px"
	 viewBox="0 0 118 72" style="enable-background:new 0 0 118 72;" xml:space="preserve">

<path class="st0" d="M23.7,0.4c-1,0.2-2.6,0.7-3.5,1.1c-1,0.5-2.2,1.7-2.7,2.6C17.1,5,17,6.3,17.2,6.9c0.4,1,2,1.6,3.1,1.1
	c0.3-0.1,0.6-0.5,1.1-1.2c0.9-1.3,1.5-1.9,2.4-2.3c0.6-0.3,0.9-0.3,2.3-0.4c1.9-0.1,2.7,0.1,3.3,0.7c0.5,0.5,0.9,1.5,1,2.5L30.4,8
	l-1.3,0.4c-0.7,0.2-2.3,0.6-3.5,0.8c-1.2,0.3-2.9,0.6-3.7,0.8c-3.7,0.8-5.5,2.5-5.8,5.4c-0.3,2.9,1.6,5.5,4.6,6.3
	c0.9,0.2,1.2,0.3,2.8,0.2c1.6-0.1,1.9-0.1,2.9-0.4c1.1-0.4,2.8-1.2,3.8-2l0.6-0.5l0.5,0.8c0.6,0.9,1.5,1.8,2,2
	c0.5,0.2,1.5,0.1,2-0.1c0.6-0.3,1.2-0.9,1.3-1.4c0.1-0.5,0.1-1-0.6-3.2L35.8,16l0-4.7c0-4.3,0-4.8-0.3-5.8C35.2,4,34.7,3,33.9,2.2
	c-0.8-0.8-1.6-1.2-3-1.5c-1-0.3-1.4-0.3-3.8-0.3C25.6,0.3,24.1,0.4,23.7,0.4z M30.2,14.4c-0.3,1.6-1,2.5-2.4,3.2
	c-1,0.5-1.8,0.7-2.9,0.7c-1.5,0-2.5-0.5-3.1-1.7c-0.3-0.6-0.3-1.7,0-2.3c0.5-0.8,1.3-1.2,3.2-1.7c0.9-0.2,2.5-0.6,3.4-0.8l1.7-0.4
	l0,1.1C30.4,13.1,30.4,13.9,30.2,14.4z"/>
<path class="st0" d="M44,0.4c-0.5,0.2-1.1,0.7-1.4,1.3c-0.2,0.5-0.2,0.6-0.3,12.8c0,8.3,0,12.5,0.1,13.1c0.2,1.1,0.5,1.7,1.1,2
	c0.4,0.2,0.6,0.3,1.5,0.2c0.9,0,1.1-0.1,1.5-0.4c0.3-0.2,0.5-0.6,0.7-1c0.3-0.7,0.3-0.7,0.3-5.2l0-4.5l0.8,0.8
	c1.9,1.8,3.3,2.4,5.9,2.4c1.6,0,2.5-0.2,3.7-0.7c3.6-1.7,5.6-5.6,5.4-10.7c-0.1-3.4-1-5.7-3-7.7C59.2,1.7,58,1,56.6,0.6
	c-1.1-0.3-3.3-0.3-4.3-0.1c-1.2,0.3-2.5,1-3.6,2.1l-1,1l-0.1-0.7c-0.1-0.9-0.4-1.5-0.9-2C45.9,0.4,44.9,0.1,44,0.4z M54.8,4.8
	c1.3,0.6,2.4,2.1,2.8,3.9c0.3,1.1,0.3,3.7-0.1,4.9c-0.5,1.8-1.5,3.1-2.8,3.7c-0.6,0.3-0.8,0.3-1.9,0.3c-1.2,0-1.3,0-2-0.4
	c-1.4-0.7-2.4-2-2.9-3.7c-0.3-1-0.3-3.9,0-4.9c0.3-1.1,0.7-1.9,1.4-2.6c1.1-1.2,2-1.6,3.6-1.5C54,4.5,54.2,4.6,54.8,4.8z"/>
<path class="st0" d="M71,0.4c-0.5,0.2-1.1,0.7-1.4,1.3c-0.2,0.5-0.2,0.6-0.3,16.8c-0.1,9-0.1,19.8-0.1,24.1c0,7.1,0,7.8,0.2,8.3
	c0.4,1.1,1.1,1.5,2.4,1.5c1,0,1.7-0.3,2.1-0.8c0.6-0.8,0.6-0.8,0.7-6.6c0.1-4.4,0.1-5.7,0.3-6.3c0.3-1.4,1.2-2.5,2.4-3.2
	c0.6-0.3,0.9-0.4,1.7-0.4c2-0.1,2.9,0.5,3.5,2.3c0.2,0.7,0.3,1,0.3,7c0.1,6.6,0.1,6.6,0.7,7.4c0.5,0.6,1.1,0.9,2.2,0.8
	c0.8,0,1-0.1,1.5-0.4c0.3-0.2,0.6-0.6,0.8-0.9l0.3-0.6v-7c0-7.7,0-7.7-0.7-9.2c-0.5-1.1-1.8-2.4-2.8-2.9c-1.3-0.6-2.1-0.7-3.9-0.7
	c-1.3,0-1.8,0.1-2.4,0.3c-1,0.4-2,0.9-3,1.8l-0.8,0.7v-2.7c0-1.5,0-4.9-0.1-7.5l-0.1-4.8l0.8,0.8c1.9,1.9,3.3,2.5,5.9,2.5
	c1.6,0,2.5-0.2,3.7-0.7c3.6-1.7,5.6-5.6,5.4-10.7c-0.1-3.4-1-5.7-3-7.7C86.2,1.7,85,1,83.6,0.6c-1.1-0.3-3.3-0.3-4.3-0.1
	c-1.2,0.3-2.5,1-3.6,2.1l-1,1l-0.1-0.7c-0.1-0.9-0.4-1.5-0.9-2C73,0.4,71.9,0.1,71,0.4z M81.8,4.8c1.3,0.6,2.4,2.1,2.8,3.9
	c0.3,1.1,0.3,3.7-0.1,4.9c-0.5,1.8-1.5,3.1-2.8,3.7c-0.6,0.3-0.8,0.3-1.9,0.3c-1.2,0-1.3,0-2-0.4c-1.4-0.7-2.4-2-2.9-3.7
	c-0.3-1-0.3-3.9,0-4.9c0.3-1.1,0.7-1.9,1.4-2.6c1.1-1.2,2-1.6,3.6-1.5C81,4.5,81.3,4.6,81.8,4.8z"/>
<path class="st0" d="M103.4,0.5c-4.2,0.9-6.9,3.6-7.8,7.7c-0.6,2.9-0.3,6,0.9,8.4c1.2,2.4,3.3,4.2,6.1,5c1,0.3,1.2,0.3,3.4,0.3
	c2.1,0,2.5,0,3.3-0.3c3.6-1,6.1-3.5,7.1-7.2c0.2-0.9,0.3-1.2,0.3-3.3c0-2,0-2.4-0.3-3.3c-1-3.7-3.5-6.2-7.1-7.2
	C108,0.3,104.5,0.2,103.4,0.5z M107.5,4.5c1.7,0.5,2.8,1.9,3.4,4c0.3,1.1,0.3,4.1,0,5.2c-0.5,1.8-1.5,3.1-2.9,3.8
	c-0.7,0.3-0.9,0.4-2.1,0.4c-1.3,0-1.4,0-2.1-0.4c-2-0.9-3-3.2-3-6.3c0-3.5,1.3-5.9,3.7-6.6C105.1,4.3,106.8,4.3,107.5,4.5z"/>
<path class="st0" d="M5.2,23.7c-0.5,0.2-0.9,0.7-1.2,1.2c-0.3,0.5-0.3,0.6-0.3,3.4l0,2.9H2.8c-1.4,0-2.3,0.7-2.3,1.9
	c0,1.2,0.8,1.9,2.3,1.9h0.8l0,6.5c0,5.6,0.1,6.6,0.2,7.2c0.5,1.9,1.5,2.9,3.4,3.3c1.2,0.3,4.6,0.2,5.6-0.2c1.5-0.5,2.1-1.2,2.1-2.3
	c0-0.7-0.2-1.2-0.8-1.5c-0.4-0.3-0.5-0.3-1.4-0.2c-2.6,0.2-2.6,0.2-3,0c-0.2-0.1-0.5-0.4-0.6-0.6c-0.2-0.4-0.2-0.8-0.3-6.3l0-5.9
	l1.4,0c1.8-0.1,2.4-0.3,2.7-1c0.1-0.3,0.2-0.7,0.2-0.8c0-0.5-0.4-1.3-0.8-1.6c-0.4-0.3-0.5-0.3-1.9-0.3l-1.5,0v-2.3
	c0-3.5-0.2-4.3-1.3-5c-0.4-0.3-0.6-0.3-1.4-0.4C5.8,23.6,5.4,23.6,5.2,23.7z"/>
<path class="st0" d="M25.8,30.9c-3.8,0.8-6.3,3-7.4,6.6c-0.5,1.4-0.6,2.6-0.5,4.7c0.1,2.2,0.3,3.3,1.1,4.9c1.4,2.8,3.7,4.5,7,5.1
	c1.3,0.2,4.3,0.2,5.4,0c2.1-0.4,3.9-1.3,5.1-2.6c1.5-1.5,1.8-3.1,0.8-4.1c-0.3-0.3-0.5-0.3-1-0.4c-0.4,0-0.8,0-1,0
	c-0.2,0-0.8,0.6-1.5,1.2c-2.3,2.1-3.4,2.6-5.5,2.5c-1,0-1.3-0.1-2-0.4c-1.7-0.8-3-3-3-5v-0.5l6.3,0c6.2,0,6.3,0,6.9-0.3
	c1.3-0.5,1.6-1.2,1.6-2.9c0-2.5-0.9-4.6-2.8-6.3c-1.4-1.3-2.7-2-4.6-2.3C29.7,30.7,26.8,30.7,25.8,30.9z M30.2,34.9
	c1.3,0.7,2.2,1.9,2.6,3.7c0.1,0.5,0.2,1,0.2,1.1c0,0.2-0.5,0.2-4.8,0.2h-4.8v-0.3c0-0.5,0.4-2,0.7-2.6c0.5-1.1,1.4-1.9,2.5-2.3
	c0.4-0.1,0.8-0.2,1.7-0.2C29.4,34.6,29.6,34.6,30.2,34.9z"/>
<path class="st0" d="M52.3,30.8c-0.1,0-0.6,0.1-1,0.2c-3.8,0.9-6.6,3.8-7.3,7.9c-1,5.5,0.9,10.4,5,12.4c1.7,0.8,2.6,1,5.4,1
	c2.9,0,3.6-0.2,5.6-1.1c1-0.5,1.4-0.7,2.2-1.5c0.8-0.8,1.1-1.1,1.4-1.9c0.4-0.8,0.4-1,0.4-1.9c0-0.9,0-1-0.3-1.4
	c-0.5-0.7-1.1-1-1.9-1c-1,0-1.5,0.3-2.5,1.9c-1,1.5-1.6,2.1-2.6,2.6c-0.6,0.3-0.8,0.3-2.1,0.3c-1.4,0-1.4,0-2.3-0.4
	c-1.1-0.5-1.7-1.1-2.2-2.3c-0.6-1.1-0.8-2.3-0.8-3.9c0-3,1.2-5.3,3.1-6.3c0.6-0.3,0.8-0.3,2.1-0.3c1.2,0,1.5,0,2,0.3
	c0.8,0.4,1.5,1,2.4,2.2c1.4,1.8,1.9,2.1,3.1,1.8c0.8-0.2,1.5-0.8,1.8-1.5c0.7-1.9-1.5-4.9-4.5-6.2c-1.6-0.6-2.2-0.8-4.5-0.8
	C53.4,30.7,52.4,30.8,52.3,30.8z"/>
<path class="st0" d="M3.8,67.2v2.3h0.5h0.5l0-1.5l0-1.5L5.5,68c0.6,1.4,0.7,1.5,1,1.5c0.3,0,0.3,0,1-1.5l0.7-1.5l0,1.5l0,1.5h0.4
	h0.4v-2.3v-2.3l-0.5,0L8,65l-0.5,1c-0.2,0.6-0.6,1.3-0.7,1.7l-0.3,0.6l-0.7-1.7L5,65l-0.6,0l-0.6,0V67.2z"/>
<path class="st0" d="M11.6,65.2c-0.4,0.2-0.8,0.8-0.8,1.1c0,0,0.2,0.1,0.4,0.1c0.3,0,0.5-0.1,0.7-0.3c0.5-0.6,1.7-0.3,1.7,0.5
	c0,0.3,0,0.3-0.8,0.3c-1.4,0-2,0.5-2,1.5c0,0.6,0.2,1,0.7,1.2c0.4,0.2,1.3,0.2,1.8,0c0.2-0.1,0.4-0.2,0.4-0.1c0,0.1,0.2,0.1,0.5,0.1
	h0.4l0-1.7c0-1.9-0.2-2.3-0.7-2.7C13.3,64.9,12.2,64.9,11.6,65.2z M13.6,68c-0.1,0.8-1,1.3-1.7,0.8c-0.3-0.3-0.3-0.3-0.2-0.6
	c0.1-0.4,0.7-0.6,1.4-0.6l0.5,0L13.6,68z"/>
<path class="st0" d="M16.3,68.1v3.2h0.4h0.4v-1c0-0.5,0-1,0-1c0,0,0.2,0.1,0.4,0.2c0.2,0.1,0.6,0.2,1,0.2c0.6,0,0.7,0,1.1-0.4
	c1-0.9,1-2.9,0-3.9c-0.4-0.4-0.5-0.4-1.1-0.4c-0.3,0-0.8,0.1-1,0.2c-0.4,0.2-0.4,0.2-0.4,0c0-0.1-0.1-0.2-0.4-0.2h-0.4V68.1z M19,66
	c0.3,0.3,0.3,0.4,0.3,1.3c0,0.9,0,1-0.3,1.3c-0.4,0.4-1.1,0.4-1.5,0c-0.3-0.3-0.3-0.4-0.3-1.3c0-0.9,0-1.1,0.3-1.3
	c0.1-0.1,0.3-0.3,0.4-0.3C18.1,65.6,18.7,65.8,19,66z"/>
<path class="st0" d="M21.8,67.3v2.3h0.5h0.5v-1c0-0.9,0-1,0.2-1c0.1,0,0.5,0.4,1,1l0.8,1h0.6c0.7,0,0.7,0.2-0.5-1.4
	c-0.4-0.5-0.8-1-0.8-1c0,0,0.4-0.6,0.9-1.2l0.9-1.1h-0.6h-0.6l-0.8,1c-1,1.3-1.2,1.3-1.2,0v-1h-0.5h-0.5V67.3z"/>
<path class="st0" d="M27.9,65.2c-0.7,0.5-1.1,1.1-1.1,2.2c0,1,0.4,1.8,1.2,2.2c0.7,0.4,2.3,0.1,2.6-0.5c0.2-0.3-0.3-0.7-0.5-0.5
	c-0.5,0.4-1,0.5-1.4,0.4c-0.5-0.1-0.9-0.7-0.9-1.1c0-0.2,0.2-0.2,1.5-0.2h1.5V67c0-0.8-0.3-1.5-0.8-1.8
	C29.4,64.9,28.4,64.9,27.9,65.2z M29.3,65.8c0.3,0.1,0.7,0.7,0.7,1c0,0.1-0.4,0.1-1.1,0.1c-1.2,0-1.3,0-0.9-0.7
	C28.3,65.7,28.8,65.5,29.3,65.8z"/>
<path class="st0" d="M31.8,65.3v0.3h0.8h0.8v2v2h0.5h0.5v-2v-2H35h0.8v-0.3v-0.3h-2h-2V65.3z"/>
<path class="st0" d="M37,67.3v2.3l0.5,0l0.5,0L39,68l0.9-1.5l0,1.5l0,1.5h0.5h0.5v-2.3v-2.3h-0.5H40l-1,1.6l-1,1.6v-1.6v-1.6h-0.5
	H37V67.3z"/>
<path class="st0" d="M42.8,67.3v2.3h0.5h0.5v-0.9v-0.9h1h1v0.9v0.9h0.5h0.5v-2.3v-2.3h-0.5h-0.5v1v1h-1h-1v-1v-1h-0.5h-0.5V67.3z"/>
<path class="st0" d="M48.3,67.3v2.3h0.5h0.5v-2v-2h1h1v-0.3v-0.3h-1.5h-1.5V67.3z"/>
<path class="st0" d="M53.5,65.1c-0.8,0.3-1.2,1.2-1.2,2.2c0,1,0.4,1.8,1.2,2.2c0.4,0.2,1.4,0.2,1.9,0c1.6-0.7,1.6-3.8,0-4.4
	C54.9,64.9,54,64.9,53.5,65.1z M54.9,65.8c1.1,0.5,1,2.6-0.1,3c-0.9,0.3-1.6-0.3-1.6-1.5c0-0.8,0.2-1.3,0.7-1.5
	C54.3,65.6,54.5,65.6,54.9,65.8z"/>
<path class="st0" d="M58.1,67.3v2.3h1.5c1.5,0,1.7-0.1,2.2-0.5c0.4-0.3,0.4-1.1,0-1.5c-0.2-0.2-0.3-0.3-0.4-0.3
	c-0.1,0,0-0.2,0.2-0.3c0.6-0.6,0.4-1.5-0.4-1.8c-0.3-0.1-0.9-0.2-1.7-0.2h-1.3V67.3z M60.9,65.9C61,66,61,66.1,61,66.3
	c0,0.4-0.3,0.5-1.2,0.6l-0.8,0.1v-0.7v-0.7l0.8,0.1C60.3,65.7,60.8,65.8,60.9,65.9z M60.8,67.7c0.6,0.2,0.6,0.8,0,1
	c-0.2,0.1-0.7,0.1-1,0.1h-0.7v-0.6v-0.6h0.7C60.1,67.6,60.6,67.7,60.8,67.7z"/>
<path class="st0" d="M64.8,65.1c-0.8,0.3-1.2,1.2-1.2,2.2c0,1,0.4,1.8,1.2,2.2c0.4,0.2,1.4,0.2,1.9,0c1.6-0.7,1.6-3.8,0-4.4
	C66.2,64.9,65.3,64.9,64.8,65.1z M66.2,65.8c1.1,0.5,1,2.6-0.1,3c-0.9,0.3-1.6-0.3-1.6-1.5c0-0.8,0.2-1.3,0.7-1.5
	C65.6,65.6,65.8,65.6,66.2,65.8z"/>
<path class="st0" d="M70.3,65.2c-0.7,0.5-1.1,1.1-1.1,2.2c0,1,0.4,1.8,1.2,2.2c0.7,0.4,2.3,0.1,2.6-0.5c0.2-0.3-0.3-0.7-0.5-0.5
	c-0.5,0.4-1,0.5-1.4,0.4c-0.5-0.1-0.9-0.7-0.9-1.1c0-0.2,0.2-0.2,1.5-0.2h1.5V67c0-0.8-0.3-1.5-0.8-1.8
	C71.8,64.9,70.8,64.9,70.3,65.2z M71.7,65.8c0.3,0.1,0.7,0.7,0.7,1c0,0.1-0.4,0.1-1.1,0.1c-1.2,0-1.3,0-0.9-0.7
	C70.7,65.7,71.2,65.5,71.7,65.8z"/>
<path class="st0" d="M78,65.2c-0.4,0.2-0.8,0.8-0.8,1.1c0,0,0.2,0.1,0.4,0.1c0.3,0,0.5-0.1,0.7-0.3c0.5-0.6,1.7-0.3,1.7,0.5
	c0,0.3,0,0.3-0.8,0.3c-1.4,0-2,0.5-2,1.5c0,0.6,0.2,1,0.7,1.2c0.4,0.2,1.3,0.2,1.8,0c0.2-0.1,0.4-0.2,0.4-0.1c0,0.1,0.2,0.1,0.5,0.1
	H81l0-1.7c0-1.9-0.2-2.3-0.7-2.7C79.7,64.9,78.6,64.9,78,65.2z M80,68c-0.1,0.8-1,1.3-1.7,0.8c-0.3-0.3-0.3-0.3-0.2-0.6
	c0.1-0.4,0.7-0.6,1.4-0.6l0.5,0L80,68z"/>
<path class="st0" d="M82.8,67.3v2.3h0.5h0.5v-2v-2h1h1v-0.3v-0.3h-1.5h-1.5V67.3z"/>
<path class="st0" d="M87.9,65.2c-0.7,0.5-1.1,1.1-1.1,2.2c0,1,0.4,1.8,1.2,2.2c0.7,0.4,2.3,0.1,2.6-0.5c0.2-0.3-0.3-0.7-0.5-0.5
	c-0.5,0.4-1,0.5-1.4,0.4c-0.5-0.1-0.9-0.7-0.9-1.1c0-0.2,0.2-0.2,1.5-0.2h1.5V67c0-0.8-0.3-1.5-0.8-1.8
	C89.4,64.9,88.4,64.9,87.9,65.2z M89.3,65.8c0.3,0.1,0.7,0.7,0.7,1c0,0.1-0.4,0.1-1.1,0.1c-1.2,0-1.3,0-0.9-0.7
	C88.3,65.7,88.8,65.5,89.3,65.8z"/>
<path class="st0" d="M92.3,67.3v2.3h0.5h0.5v-0.9v-0.9h1h1v0.9v0.9h0.5h0.5v-2.3v-2.3h-0.5h-0.5v1v1h-1h-1v-1v-1h-0.5h-0.5V67.3z"/>
<path class="st0" d="M98.7,65.1c-0.8,0.4-1.1,1.3-1,2.5c0.1,1.3,0.8,2.1,2,2.1c0.9,0,1.7-0.5,1.9-1.2c0.1-0.3,0.1-0.3-0.3-0.3
	c-0.3,0-0.5,0.1-0.7,0.4c-0.3,0.3-0.4,0.4-0.8,0.4c-0.4,0-0.5-0.1-0.8-0.4c-0.3-0.4-0.3-0.4-0.3-1.3c0-0.8,0.1-0.9,0.3-1.2
	c0.2-0.2,0.4-0.3,0.6-0.4c0.4-0.1,1,0.2,1.2,0.6c0.1,0.3,0.2,0.3,0.5,0.3c0.3,0,0.4,0,0.4-0.3c0-0.4-0.4-1-0.8-1.2
	C100.3,64.9,99.3,64.9,98.7,65.1z"/>
<path class="st0" d="M102.6,65.3v0.3h0.8h0.8v2v2h0.5h0.5v-2v-2h0.8h0.8v-0.3v-0.3h-2h-2V65.3z"/>
<path class="st0" d="M107.9,67.3v2.3h1.5c1.5,0,1.7-0.1,2.2-0.5c0.4-0.3,0.4-1.1,0-1.5c-0.2-0.2-0.3-0.3-0.4-0.3
	c-0.1,0,0-0.2,0.2-0.3c0.6-0.6,0.4-1.5-0.4-1.8c-0.3-0.1-0.9-0.2-1.7-0.2h-1.3V67.3z M110.6,65.9c0.1,0.1,0.2,0.3,0.2,0.4
	c0,0.4-0.3,0.5-1.2,0.6l-0.8,0.1v-0.7v-0.7l0.8,0.1C110.1,65.7,110.5,65.8,110.6,65.9z M110.5,67.7c0.6,0.2,0.6,0.8,0,1
	c-0.2,0.1-0.7,0.1-1,0.1h-0.7v-0.6v-0.6h0.7C109.9,67.6,110.3,67.7,110.5,67.7z"/>
<path class="st0" d="M114.5,65.1c-0.8,0.3-1.2,1.2-1.2,2.2c0,1,0.4,1.8,1.2,2.2c0.4,0.2,1.4,0.2,1.9,0c1.6-0.7,1.6-3.8,0-4.4
	C115.8,64.9,114.9,64.9,114.5,65.1z M115.9,65.8c1.1,0.5,1,2.6-0.1,3c-0.9,0.3-1.6-0.3-1.6-1.5c0-0.8,0.2-1.3,0.7-1.5
	C115.3,65.6,115.4,65.6,115.9,65.8z"/>
</svg>
